<svg version="1.0" xmlns="http://www.w3.org/2000/svg"
 width="104" height="38" viewBox="0 0 110.000000 38.000000"
 preserveAspectRatio="xMidYMid meet">

<g transform="translate(0.000000,38.000000) scale(0.100000,-0.100000)"
fill="#000000" stroke="none">
<path d="M928 363 c-8 -10 -18 -26 -21 -35 -9 -26 17 -23 35 4 l15 22 30 -22
c49 -35 84 -28 102 21 13 34 -9 38 -31 5 l-15 -22 -35 22 c-43 27 -60 28 -80
5z"/>
<path d="M0 180 l0 -170 25 0 c24 0 25 3 25 59 0 42 5 62 16 72 15 12 25 5 83
-59 53 -57 72 -72 95 -72 l28 0 -41 48 c-23 26 -58 66 -78 90 l-36 43 71 72
c40 40 72 76 72 80 0 4 -11 7 -24 7 -17 0 -46 -24 -105 -87 l-80 -88 -1 88 c0
86 0 87 -25 87 l-25 0 0 -170z"/>
<path d="M338 264 c-10 -3 -18 -13 -18 -23 0 -15 9 -17 66 -17 52 1 69 -3 77
-16 15 -23 8 -28 -55 -37 -61 -8 -93 -23 -108 -51 -17 -32 -11 -60 19 -91 33
-33 64 -36 116 -15 19 8 35 11 35 5 0 -5 9 -9 20 -9 19 0 20 7 20 104 0 133
-10 148 -96 152 -32 2 -67 0 -76 -2z m132 -158 c0 -41 -17 -56 -68 -63 -43 -6
-66 12 -60 49 4 28 41 48 91 48 35 0 37 -1 37 -34z"/>
<path d="M918 263 c-10 -2 -18 -13 -18 -24 0 -18 5 -19 49 -13 60 8 97 0 105
-22 9 -23 7 -24 -64 -34 -76 -11 -110 -38 -110 -87 0 -70 74 -104 145 -67 19
10 31 11 33 5 2 -6 12 -11 23 -11 17 0 19 8 19 93 0 115 -5 134 -41 152 -26
14 -103 18 -141 8z m142 -158 c0 -28 -5 -37 -30 -50 -64 -33 -125 -4 -98 48
12 23 43 36 91 36 36 1 37 0 37 -34z"/>
<path d="M600 155 c0 -99 2 -107 25 -130 28 -29 66 -32 110 -9 19 10 31 11 33
5 2 -6 12 -11 23 -11 18 0 19 8 19 125 0 118 -1 125 -20 125 -19 0 -20 -7 -20
-95 l0 -94 -30 -16 c-76 -39 -100 -13 -100 111 0 87 -1 94 -20 94 -19 0 -20
-7 -20 -105z"/>
</g>
</svg>
